<svg version="1.2" xmlns="http://www.w3.org/2000/svg" viewBox="0 0 640 512" width="640" height="512">
	<title>discord-svg</title>
	<defs>
		<filter x="-50%" y="-50%" width="200%" height="200%" id="f1" ><feDropShadow dx="0" dy="0" stdDeviation="2.0833333333333335" flood-color="#ffffbe" flood-opacity="1.5"/></filter>
		<filter x="-50%" y="-50%" width="200%" height="200%" id="f2" ><feDropShadow dx="-23.382685902179844" dy="13.499999999999998" stdDeviation="5.416666666666667" flood-color="#000000" flood-opacity=".6"/></filter>
	</defs>
	<path id="Layer" fill-rule="" class="s0" d="m611.5 404.4q-0.1 0.2-0.1 0.4-0.1 0.2-0.2 0.3-0.1 0.2-0.2 0.4-0.1 0.1-0.3 0.2-16.6 12.3-34.3 23.2-17.6 10.9-36.1 20.2-18.4 9.3-37.7 17-19.2 7.8-39 13.8-0.2 0.1-0.5 0.1-0.3 0-0.6-0.1-0.3-0.1-0.5-0.3-0.3-0.1-0.4-0.4-4.2-5.8-8.2-11.8-4-5.9-7.7-12-3.8-6.2-7.3-12.4-3.5-6.2-6.8-12.6-0.2-0.4-0.2-0.8-0.1-0.4 0.1-0.7 0.1-0.4 0.4-0.7 0.3-0.3 0.7-0.4 5.9-2.2 11.8-4.7 5.8-2.5 11.6-5.3 5.7-2.7 11.3-5.7 5.7-2.9 11.2-6.1 0.4-0.3 0.6-0.7 0.2-0.4 0.3-0.9 0-0.4-0.2-0.9-0.2-0.4-0.6-0.7c-3.1-2.3-6.2-4.7-9.1-7.1q-0.2-0.2-0.5-0.3-0.2-0.1-0.4-0.1-0.3-0.1-0.6 0-0.2 0-0.4 0.1c-95.1 44-199.3 44-295.5 0q-0.3-0.1-0.5-0.1-0.3 0-0.5 0-0.3 0-0.5 0.1-0.2 0.1-0.4 0.3c-3 2.4-6.1 4.8-9.2 7.1q-0.3 0.3-0.5 0.7-0.2 0.5-0.2 0.9 0 0.5 0.3 0.9 0.2 0.4 0.6 0.7 5.5 3.1 11.2 6.1 5.6 3 11.3 5.7 5.8 2.7 11.6 5.2 5.9 2.5 11.8 4.8 0.4 0.1 0.7 0.4 0.2 0.3 0.4 0.7 0.1 0.3 0.1 0.7 0 0.4-0.2 0.8-3.2 6.4-6.7 12.7-3.5 6.2-7.3 12.3-3.8 6.2-7.8 12.1-4 6-8.2 11.7-0.2 0.3-0.4 0.4-0.3 0.2-0.5 0.3-0.3 0.1-0.6 0.1-0.3 0-0.6-0.1-19.7-6.1-38.9-13.8-19.2-7.7-37.6-17-18.5-9.4-36.1-20.2-17.6-10.9-34.2-23.2-0.2-0.1-0.3-0.2-0.1-0.2-0.2-0.4-0.1-0.2-0.2-0.4 0-0.1-0.1-0.3c-10.2-109.7 10.7-220.7 86.9-334.6q0.1-0.1 0.2-0.2 0-0.1 0.1-0.2 0.1-0.1 0.3-0.1 0.1-0.1 0.2-0.2 14.3-6.5 28.9-12.1 14.7-5.7 29.7-10.3 15-4.7 30.3-8.3 15.3-3.7 30.8-6.4 0.3 0 0.5 0 0.3 0.1 0.6 0.2 0.2 0.1 0.4 0.3 0.3 0.2 0.4 0.4 2.1 3.8 4.1 7.5 2 3.8 3.9 7.6 1.9 3.9 3.7 7.7 1.8 3.9 3.4 7.8 16.7-2.5 33.5-3.8 16.9-1.2 33.7-1.2 16.9 0 33.7 1.2 16.9 1.3 33.6 3.8 1.6-3.9 3.4-7.7 1.8-3.9 3.6-7.7 1.9-3.9 3.8-7.7 2-3.7 4.1-7.5 0.1-0.2 0.3-0.4 0.2-0.2 0.5-0.3 0.2-0.1 0.5-0.2 0.3 0 0.6 0 15.5 2.7 30.7 6.4 15.3 3.6 30.3 8.3 15 4.7 29.7 10.3 14.7 5.6 29 12.1 0.1 0.1 0.2 0.2 0.1 0 0.2 0.1 0.1 0.1 0.2 0.2 0.1 0.1 0.1 0.2c66.4 97.7 99.2 207.8 87 334.6zm-336.2-126.1c0.5-32.4-23.1-59.2-52.8-59.2-29.4 0-52.9 26.6-52.9 59.2 0 32.7 23.9 59.3 52.9 59.3 29.4 0 52.8-26.6 52.8-59.3zm195.4 0c0.5-32.4-23.2-59.2-52.8-59.2-29.5 0-52.9 26.6-52.9 59.2 0 32.7 23.9 59.3 52.9 59.3 29.6 0 52.8-26.6 52.8-59.3z"/>
</svg>