<svg version="1.2" xmlns="http://www.w3.org/2000/svg" viewBox="0 0 512 512" width="512" height="512">
	<title>twitter-svg</title>
	<defs>
		<filter x="-50%" y="-50%" width="200%" height="200%" id="f1" ><feDropShadow dx="0" dy="0" stdDeviation="2.0833333333333335" flood-color="#ffffbe" flood-opacity="1.5"/></filter>
		<filter x="-50%" y="-50%" width="200%" height="200%" id="f2" ><feDropShadow dx="-23.382685902179844" dy="13.499999999999998" stdDeviation="5.416666666666667" flood-color="#000000" flood-opacity=".6"/></filter>
	</defs>
	
	<path id="Layer" class="s0" d="m459.4 151.7c0.3 4.6 0.3 9.1 0.3 13.7 0 138.7-105.6 298.5-298.6 298.5-59.4 0-114.6-17.2-161.1-47.1 8.4 1 16.6 1.3 25.3 1.3 49.1 0 94.3-16.6 130.3-44.8-46.1-1-84.8-31.2-98.1-72.8 6.5 1 13 1.6 19.8 1.6 9.4 0 18.9-1.3 27.6-3.5-48-9.8-84.1-52-84.1-103v-1.3c14 7.8 30.2 12.6 47.4 13.3-28.2-18.8-46.8-51-46.8-87.4 0-19.5 5.2-37.4 14.3-53 51.7 63.7 129.3 105.3 216.4 109.9-1.6-7.8-2.6-16-2.6-24.1 0-57.8 46.8-104.9 104.9-104.9 30.2 0 57.5 12.7 76.7 33.1 23.7-4.5 46.5-13.3 66.6-25.3-7.8 24.3-24.4 44.8-46.1 57.8 21.1-2.3 41.6-8.1 60.4-16.2-14.3 20.8-32.2 39.3-52.6 54.2z"/>
</svg>